<svg width="17" height="15" viewBox="0 0 17 15" fill="none" xmlns="http://www.w3.org/2000/svg">
<path d="M1.5 0.833252H2.00526C2.85578 0.833252 3.56986 1.47367 3.6621 2.31917L4.3379 8.514C4.43014 9.3595 5.14422 9.99992 5.99474 9.99992H13.205C13.9669 9.99992 14.6317 9.48332 14.82 8.7451L15.9699 4.23584C16.2387 3.18204 15.4425 2.15733 14.355 2.15733H4.5M4.52063 13.0207H5.14563M4.52063 13.6457H5.14563M13.6873 13.0207H14.3123M13.6873 13.6457H14.3123M5.66667 13.3333C5.66667 13.7935 5.29357 14.1666 4.83333 14.1666C4.3731 14.1666 4 13.7935 4 13.3333C4 12.873 4.3731 12.4999 4.83333 12.4999C5.29357 12.4999 5.66667 12.873 5.66667 13.3333ZM14.8333 13.3333C14.8333 13.7935 14.4602 14.1666 14 14.1666C13.5398 14.1666 13.1667 13.7935 13.1667 13.3333C13.1667 12.873 13.5398 12.4999 14 12.4999C14.4602 12.4999 14.8333 12.873 14.8333 13.3333Z" stroke="white" stroke-width="1.5" stroke-linecap="round"/>
</svg>
